<svg id="Calque_2" data-name="Calque 2" xmlns="http://www.w3.org/2000/svg" viewBox="0 0 2642.6 961"><defs><style>.cls-1{fill:#ffffff;}</style></defs><title>logo_hetic</title><rect class="cls-1" x="709.8" y="11.8" width="86.5" height="258.9"/><rect class="cls-1" x="882.2" y="11.8" width="86.5" height="258.9"/><rect class="cls-1" x="360.8" y="356.7" width="86.5" height="258.9"/><rect class="cls-1" x="533.2" y="356.7" width="86.5" height="258.9"/><rect class="cls-1" x="12.2" y="702.1" width="86.5" height="258.9"/><rect class="cls-1" x="184.7" y="702.1" width="86.5" height="258.9"/><path class="cls-1" d="M150.2,294.5C72.4,294.5,9,231.1,9,153.2S72.4,12,150.2,12,291.4,75.4,291.4,153.2C291.9,231.1,228.5,294.5,150.2,294.5Zm0-204.2a62.9,62.9,0,1,0,62.9,62.9A63.08,63.08,0,0,0,150.2,90.3Z" transform="translate(-9 -12)"/><path class="cls-1" d="M848.2,639.8c-77.9,0-141.2-63.4-141.2-141.2s63.4-141.2,141.2-141.2,141.2,63.4,141.2,141.2S926.1,639.8,848.2,639.8Zm0-204.1a62.9,62.9,0,1,0,62.9,62.9C910.7,463.8,882.6,435.7,848.2,435.7Z" transform="translate(-9 -12)"/><rect class="cls-1" x="709.8" y="874.5" width="258.9" height="86.5"/><rect class="cls-1" x="709.8" y="702.1" width="258.9" height="86.5"/><rect class="cls-1" x="12.2" y="529.2" width="258.9" height="86.5"/><rect class="cls-1" x="12.2" y="356.7" width="258.9" height="86.5"/><polygon class="cls-1" points="1389.2 356.7 1389.2 447.2 1298.7 447.2 1298.7 356.7 1218.6 356.7 1218.6 615.6 1298.7 615.6 1298.7 516.9 1389.2 516.9 1389.2 615.6 1468.9 615.6 1468.9 356.7 1389.2 356.7"/><polygon class="cls-1" points="1783.5 418.3 1783.5 356.7 1575.7 356.7 1575.7 615.6 1783.5 615.6 1783.5 553.6 1653.6 553.6 1653.6 515.1 1783.5 515.1 1783.5 453.6 1653.6 453.6 1653.6 418.3 1783.5 418.3"/><polygon class="cls-1" points="2110.8 356.7 1862.7 356.7 1862.7 423.2 1947.3 423.2 1947.3 615.6 2026.6 615.6 2026.6 423.2 2110.8 423.2 2110.8 356.7"/><rect class="cls-1" x="2199.5" y="357.1" width="79.7" height="258.9"/><path class="cls-1" d="M2572.4,526.7c-9.5,23.1-30.8,36.7-57,36.7-35.8,0-62.5-24.4-62.5-64.7s26.7-64.7,62.5-64.7c26.7,0,48,13.6,57,37.1h79.2c-12.7-63.4-68.4-107.7-136.7-107.7-77.9,0-140.3,57.5-140.3,135.3s62,135.3,140.3,135.3c68.4,0,123.6-44.4,136.7-107.7l-79.2.4Z" transform="translate(-9 -12)"/></svg>