<svg width="42" height="49" viewBox="0 0 42 49" fill="none" xmlns="http://www.w3.org/2000/svg">
<path d="M30.3748 18.8176V41.1425L41.1895 34.8362V12.1067L30.3748 18.8176Z" fill="#33369F"/>
<path d="M21.1287 0L0 11.6683L11.5824 18.8176L21.0954 13.4219L30.3747 18.8176L41.1894 12.1067L21.1287 0Z" fill="#B7B9E7"/>
<path d="M0 11.6682L11.6158 18.8176L11.5157 29.8451L24.4666 36.927L24.6001 48.9999L0 34.9036V11.6682Z" fill="#7173CD"/>
<path d="M21.0955 13.4219L30.3747 18.8176C30.3747 18.8176 30.4 29.9946 30.4 29.826C31.0741 30.1532 21.229 24.8878 21.229 24.8878L21.0955 13.4219Z" fill="#7173CD"/>
<path d="M11.5156 29.8451L21.2288 24.8878L21.0953 13.4219L11.6158 18.8176L11.5156 29.8451Z" fill="#33369F"/>
<path d="M24.4666 36.9269L11.5156 29.845L21.2288 24.8877L33.6457 31.5649L24.4666 36.9269Z" fill="#B7B9E7"/>
<path d="M24.6001 49.0002L33.4788 42.9637L33.6457 31.5652L24.4666 36.9272L24.6001 49.0002Z" fill="#33369F"/>
<path d="M1.13794 12.3765C4.60932 14.5348 8.14437 16.6613 11.6158 18.8196C14.7867 17.0322 17.9254 15.2095 21.0964 13.4222C24.2007 15.2095 27.2735 17.0303 30.3777 18.8177C33.5487 16.7943 36.7557 14.9087 39.911 12.8992L21.0984 1.48389C14.4561 5.126 7.81368 8.7344 1.13794 12.3765Z" fill="#B7B9E7"/>
</svg>
