<?xml version="1.0" encoding="utf-8"?>
<!-- Generator: Adobe Illustrator 16.0.0, SVG Export Plug-In . SVG Version: 6.00 Build 0)  -->
<!DOCTYPE svg PUBLIC "-//W3C//DTD SVG 1.1//EN" "http://www.w3.org/Graphics/SVG/1.1/DTD/svg11.dtd">
<svg version="1.1" id="Calque_1" xmlns="http://www.w3.org/2000/svg" xmlns:xlink="http://www.w3.org/1999/xlink" x="0px" y="0px"
	 width="453.54px" height="226.77px" viewBox="0 0 453.54 226.77" enable-background="new 0 0 453.54 226.77" xml:space="preserve">
<g>
	<path fill="#00CB8B" d="M149.446,136.247c-3.539,6.27-8.368,11.176-14.484,14.714c-6.12,3.539-12.871,5.307-20.251,5.307
		c-7.385,0-14.133-1.768-20.252-5.307c-6.119-3.538-10.945-8.444-14.484-14.714c-3.541-6.271-5.31-13.35-5.31-21.237
		c0-7.887,1.769-15.017,5.31-21.389c3.539-6.37,8.365-11.324,14.484-14.865c6.119-3.539,12.867-5.31,20.252-5.31
		c7.38,0,14.131,1.771,20.251,5.31c6.116,3.541,10.945,8.495,14.484,14.865c3.538,6.372,5.31,13.501,5.31,21.389
		C154.756,122.897,152.984,129.976,149.446,136.247z M136.934,100.373c-2.275-4.297-5.362-7.634-9.253-10.012
		c-3.895-2.375-8.218-3.563-12.97-3.563c-4.754,0-9.078,1.188-12.971,3.563c-3.895,2.378-6.977,5.715-9.253,10.012
		c-2.274,4.299-3.412,9.178-3.412,14.637c0,5.36,1.138,10.163,3.412,14.409c2.276,4.25,5.358,7.562,9.253,9.938
		c3.893,2.376,8.217,3.562,12.971,3.562c4.752,0,9.075-1.186,12.97-3.562c3.891-2.377,6.978-5.688,9.253-9.938
		c2.275-4.246,3.412-9.049,3.412-14.409C140.346,109.55,139.209,104.671,136.934,100.373z"/>
	<path fill="#00CB8B" d="M184.94,152.63c-1.417,1.416-3.136,2.123-5.157,2.123c-2.023,0-3.716-0.707-5.082-2.123
		c-1.364-1.416-2.047-3.134-2.047-5.158V49.783c0-2.021,0.707-3.74,2.123-5.157c1.416-1.415,3.134-2.125,5.158-2.125
		c2.021,0,3.717,0.709,5.081,2.125c1.364,1.417,2.049,3.136,2.049,5.157v97.688C187.065,149.496,186.355,151.214,184.94,152.63z"/>
	<path fill="#00CB8B" d="M279.974,76.253c1.364,1.366,2.047,3.162,2.047,5.386v66.741c0,8.193-1.742,15.041-5.232,20.555
		c-3.489,5.511-8.217,9.579-14.184,12.213c-5.969,2.627-12.691,3.943-20.174,3.943c-4.045,0-8.775-0.711-14.184-2.123
		c-5.41-1.418-8.874-2.883-10.39-4.401c-3.137-1.62-4.704-3.64-4.704-6.067c0-0.605,0.202-1.418,0.607-2.426
		c1.11-2.531,2.981-3.791,5.612-3.791c1.314,0,2.73,0.302,4.248,0.908c8.089,3.134,14.409,4.703,18.962,4.703
		c8.088,0,14.281-1.949,18.58-5.84c4.299-3.894,6.447-9.23,6.447-16.004v-8.191c-2.123,3.944-5.688,7.335-10.695,10.162
		c-5.004,2.832-10.29,4.247-15.85,4.247c-6.979,0-13.349-1.768-19.112-5.307c-5.765-3.538-10.291-8.47-13.576-14.79
		c-3.289-6.32-4.932-13.424-4.932-21.312s1.643-14.991,4.932-21.313c3.285-6.317,7.785-11.249,13.5-14.789
		c5.711-3.539,12.005-5.31,18.886-5.31c5.561,0,10.742,1.266,15.547,3.792c4.803,2.529,8.57,5.612,11.301,9.253v-4.854
		c0-2.123,0.657-3.891,1.973-5.31c1.312-1.415,3.033-2.123,5.158-2.123C276.864,74.206,278.608,74.889,279.974,76.253z
		 M255.931,139.357c3.842-2.377,6.85-5.715,9.025-10.015c2.174-4.295,3.261-9.125,3.261-14.484c0-5.359-1.087-10.164-3.261-14.41
		c-2.176-4.248-5.184-7.584-9.025-10.012c-3.844-2.428-8.242-3.639-13.196-3.639c-4.855,0-9.204,1.211-13.046,3.639
		c-3.845,2.428-6.852,5.791-9.026,10.088c-2.176,4.299-3.261,9.077-3.261,14.334c0,5.258,1.085,10.037,3.261,14.334
		c2.175,4.299,5.182,7.66,9.026,10.086c3.842,2.43,8.19,3.641,13.046,3.641C247.688,142.919,252.087,141.733,255.931,139.357z"/>
	<path fill="#00CB8B" d="M316.075,150.237c-6.271-3.539-11.173-8.369-14.711-14.484c-3.543-6.119-5.311-12.871-5.311-20.251
		c0-7.384,1.768-14.132,5.311-20.251c3.538-6.12,8.439-10.945,14.711-14.484c6.271-3.542,13.349-5.31,21.239-5.31
		c7.888,0,15.018,1.768,21.387,5.31c6.37,3.539,11.324,8.365,14.866,14.484c3.539,6.119,5.311,12.868,5.311,20.251
		c0,7.38-1.771,14.132-5.311,20.251c-3.542,6.115-8.496,10.945-14.866,14.484c-6.369,3.538-13.499,5.309-21.387,5.309
		C329.424,155.546,322.347,153.775,316.075,150.237z M351.95,137.725c4.299-2.274,7.633-5.362,10.014-9.253
		c2.373-3.895,3.562-8.217,3.562-12.97c0-4.753-1.188-9.078-3.562-12.97c-2.381-3.895-5.715-6.978-10.014-9.254
		c-4.299-2.274-9.178-3.412-14.636-3.412c-5.362,0-10.165,1.137-14.412,3.412c-4.247,2.276-7.562,5.359-9.935,9.254
		c-2.377,3.892-3.564,8.216-3.564,12.97c0,4.753,1.188,9.075,3.564,12.97c2.373,3.891,5.688,6.979,9.935,9.253
		s9.05,3.413,14.412,3.413C342.772,141.138,347.651,139.999,351.95,137.725z"/>
	<path fill="#30302F" d="M379.134,87.259l-0.006-0.044v-0.121c0.004-1.781,0.068-3.642-0.332-5.368
		c-0.193-0.829-0.494-1.626-0.96-2.37c-1.41-3.357-5.832-3.323-5.832-3.323c-0.063,0-0.123,0.006-0.185,0.007
		c-0.742-0.015-1.492,0.07-2.229,0.267c-4.213,1.125-4.776,5.617-4.776,5.617l-0.035,0.731c-0.053,0.408-0.058,0.66-0.058,0.66
		l-0.001,0.556l-0.156,3.251v58.25l0.007,0.041l-0.001,0.124c-0.005,1.781-0.068,3.642,0.333,5.368
		c0.192,0.828,0.494,1.626,0.959,2.369c1.41,3.357,5.832,3.322,5.832,3.322c0.064,0,0.123-0.006,0.186-0.007
		c0.741,0.015,1.491-0.07,2.228-0.267c4.214-1.125,4.776-5.617,4.776-5.617l0.035-0.73c0.053-0.409,0.057-0.66,0.057-0.66
		l0.002-0.557l0.156-3.251V87.259z"/>
</g>
</svg>
